Patient4_TMGait_0pt3_03_right_24_EMG.mot
version=1
nRows=29
nColumns=33
inDegrees=no
endheader
time	1LAddLong	2LGlutMax	3LGlutMed	4LIliopsoas	5LSemiMemb	6LBicFemLong	7LRecFem	8LVastMed	9LVastLat	10LGasMed	11LTibAnt	12lTibPost	13LPeroneusLong	14LSol	15LExtDigLong	16LFlexDigLong	17RAddLong	18RGlutMax	19RGlutMed	20RIliopsoas	21RSemiMemb	22RBicFemLong	23RRecFem	24RVastMed	25RVastLat	26RGasMed	27RTibAnt	28RTibPost	29RPeroneusLong	30RSol	31RExtDigLong	32RFlexDigLong
46.755	0.014191	0.027161	-0.00946	0.001373	0.062714	-0.086212	0.005798	0.096436	0.007782	-0.168	-0.000458	-0.007782	-0.035553	0.29327	0.036011	-0.20996	-0.1683	-0.16998	0.21973	0.15579	0.016785	0.010071	-0.004578	-0.001831	-0.007935	0.001526	-0.31586	-0.005951	0.076294	0.014496	-0.001831	0.003357
46.756	0.030823	0.031433	0.037231	0.024414	0.060883	-0.077209	0.039063	0.081482	0.024261	-0.06134	-0.010376	0.080566	-0.18433	0.46768	0.042419	1.218	-0.11078	-0.13245	0.079498	0.070801	0.004425	0.011444	0.017853	-0.019379	-0.006256	0.014496	-0.38666	-0.002594	0.082855	0.008698	-0.001221	-0.010986
46.757	0.042877	-0.024872	0.097198	-0.011139	0.05188	-0.062408	0.023193	0.045624	-0.058289	0.067291	-0.009003	0.21713	-0.075073	0.30487	0.052795	-0.19257	-0.052032	-0.056458	0.1767	0.07019	0.005646	0.005798	0.025024	-0.043335	-0.003357	0.011597	0.01709	-0.006714	0.002594	0.032501	-0.00473	-0.006409
46.758	0.042725	-0.050354	0.065918	0.015869	0.036163	-0.036774	-0.012665	-0.001373	-0.07431	0.13199	-0.000305	-0.062714	-0.029297	0.12772	0.044403	-0.12512	-0.032959	-0.068359	0.19974	-0.016632	0.010376	0.022888	0.00473	0.000153	0.022583	0.010834	0.38101	-0.005951	0.098267	0.002747	-0.002441	0.01297
46.759	0.050201	-0.080566	0.089569	0.019836	0.032654	-0.042114	-0.16373	-0.041809	0.030212	0.13565	-0.00412	0.01236	0.085297	-0.029907	0.026398	-0.18509	-0.013123	-0.026245	0.059967	-0.037079	0.019226	0.035095	-0.015869	0.030823	0.017853	0.008392	0.2449	-0.000153	0.2243	-0.050201	-0.00412	0
46.76	0.040588	-0.11643	-0.066986	0.028839	0.021667	-0.023956	-0.25116	-0.062256	0.17517	0.29327	-0.008545	-0.050507	0.43594	-0.015411	0.012817	0.26321	0.003662	0.014343	0.1268	-0.097809	0.02594	-0.001221	-0.01236	-0.000458	0.013275	-0.001984	0.20432	0.000916	0.15167	-0.007782	0.007172	-0.001068
46.761	0.021057	-0.13473	0.012817	0.00824	0.016022	0.002136	-0.094604	-0.069885	0.41199	0.271	-0.011902	-0.079193	0.21133	-0.21866	-0.009766	-0.19623	0.002594	0.050354	0.30991	-0.11292	0.003967	0.014343	-0.011749	-0.004425	-0.019379	-0.009308	0.3537	-0.000763	-0.4686	0.069885	-0.00412	-0.002441
46.762	0.000916	-0.17868	0.059509	0.007324	0.013428	-0.022736	-0.041046	-0.051575	0.30533	0.12787	-0.015259	-0.05188	0.095825	-0.14938	-0.020599	0.000916	-0.008698	0.059662	0.24506	-0.046844	0.002594	-0.007019	0.002899	-0.027924	-0.005646	-0.009918	0.40482	0.000305	-0.21713	0.05249	-0.003204	-0.009155
46.763	-0.002136	-0.18906	-0.009766	0.022125	0.019226	0.005951	-0.10178	-0.029907	-0.070038	-0.048523	0.001068	-0.027313	-0.1091	-0.18753	-0.053253	-0.032196	0.002289	0.015869	0.18662	-0.030823	0.001526	-0.011597	-0.015564	-0.002136	-0.008698	-0.002289	0.30868	0.004578	-0.027924	-0.010529	-0.001526	-0.00824
46.764	-0.011749	-0.21957	-0.10468	-0.000916	0.007172	0.047455	0.035706	-0.006256	-0.15778	-0.046692	-0.006104	0.1535	-0.23666	0.23224	-0.003357	0.10941	-0.009613	-0.013733	0.061035	-0.052948	-0.00061	-0.023346	-0.010376	-0.047302	-0.010529	-0.003052	0.15182	0.002289	0.019684	-0.049591	-0.002289	-0.00061
46.765	-0.00351	-0.17609	-0.049438	0.014191	0.001526	0.049286	0.054169	-0.022583	0.044556	0.079956	0.004883	-0.40619	0.2002	0.009766	-0.005646	0.084686	0.015411	0.01297	-0.16327	-0.07782	-0.004578	-0.00946	-0.017395	-0.00351	-0.002594	0.00412	-0.26794	0.005341	0.007629	-0.067596	0.007019	-0.005798
46.766	0.003357	-0.13794	-0.024109	0.021057	0.027466	0.014801	0.088654	-0.043182	0.048065	0.15091	0.00885	-0.044556	0.10742	0.1651	0.004883	-0.13367	0.080414	-0.012817	-0.14313	-0.094604	-0.017395	-0.002289	-0.025787	-0.088806	0.010681	0.007019	-0.23941	0.00885	-0.038757	-0.082703	-0.002289	-0.006866
46.767	0.002594	-0.070343	-0.001678	0.017548	0.004272	0.006409	0.11612	-0.038757	0.25207	0.13657	0.018005	0.49164	-0.024109	0.23666	-0.033264	-0.11063	0.11765	-0.050659	0.21011	-0.053253	-0.024109	0.009308	-0.059052	-0.055847	0.014496	0.01358	0.054321	0.001221	-0.073395	-0.052643	-0.000458	-0.009613
46.768	0.004883	0.00946	-0.005341	0.002441	0.004425	-0.010834	0.073395	-0.023651	0.3833	0.11063	-0.00061	0.19089	-0.17624	-0.20279	-0.037689	-0.014648	0.052185	-0.016785	0.60272	-0.02533	-0.018921	0.011139	-0.10101	-0.052032	0.005798	0.002441	0.52536	0.00412	-0.13473	-0.025482	-0.003967	-0.015869
46.769	-0.009766	0.070343	0.055542	0.001678	0.00412	0.001373	-0.009766	0.014038	0.39063	0.10346	0.002594	-0.020752	-0.093689	-0.33447	-0.04364	-0.043945	-0.037994	-0.053101	0.29572	0.029297	-0.025787	0.040283	-0.085907	-0.016327	0.016479	-0.003967	0.49469	0.003815	-0.13321	-0.017548	0.003815	-0.010681
46.77	-0.001068	0.0354	0.14679	0.031433	0.007324	-0.028229	-0.16861	0.028687	0.22476	0.042267	-0.019531	-0.062714	-0.036926	0.40649	-0.018158	0.017853	-0.11139	-0.081329	-0.098724	0.006409	-0.01297	0.043335	-0.11536	-0.035553	0.020142	0.010376	0.068665	0.006256	-0.036163	-0.019531	-0.005798	-0.006714
46.771	0.010223	0.051117	0.10696	0.04715	0.006256	-0.002289	-0.16068	0.035248	0.10986	0.007019	-0.018768	-0.077362	0.01297	0.62546	-0.035706	0.063324	-0.13321	-0.096741	-0.009003	0.039215	-0.014954	0.042877	-0.083313	-0.049744	0.030975	0.006256	-0.24933	0.003967	-0.017548	-0.068665	-0.001373	-0.004883
46.772	-0.003052	0.009308	-0.012512	0.019836	0.006866	-0.01297	-0.14847	0.020905	-0.054321	0.006714	0.003357	-0.045319	0.011292	0.57907	-0.042267	-0.020599	-0.10468	-0.11551	-0.069427	0.098572	-0.010071	0.043182	-0.091553	-0.04425	0.059204	0.010223	-0.90897	0.010071	0.021515	-0.11963	-0.001831	-0.001678
46.773	0.010986	0.039215	0.0177	-0.011292	0.011444	0.010071	-0.042267	-0.00885	-0.14404	0.013885	0.00061	-0.029144	-0.21927	0.065765	-0.02182	-0.067444	0.005493	-0.037842	-0.17471	0.10986	-0.00061	0.044708	-0.083923	-0.061951	0.038605	0.010681	-0.37964	0.003357	0.004425	-0.12985	-0.003052	0.004883
46.774	-0.001526	0.023804	0.17288	-0.021667	0.005188	0.076752	0.066681	-0.011749	-0.4274	0.00412	0.007935	-0.023651	-0.14862	-0.34912	0.024414	-0.062103	0.075989	-0.063477	-0.16754	0.11948	0.005951	0.016327	-0.076599	-0.032959	0.016937	0.006866	0.090179	0.005188	0.017242	-0.10956	-0.00061	-0.007782
46.775	-0.004272	-0.053406	0.11154	-0.010376	-0.001678	0.1474	0.12344	0.001068	-0.3923	-0.018616	-0.010376	-0.03067	0.13275	-0.26352	0.048676	-0.032654	0.14206	-0.10956	0.075226	0.10071	0.015717	0.007629	-0.064392	-0.070953	0.019989	-0.003052	0.14694	0.003204	-0.037079	-0.095825	-0.001526	0.001678
46.776	0.001831	-0.096741	0.15533	0.012512	0.001373	0.1265	0.081024	-0.004578	-0.18387	-0.02533	-0.012665	-0.024567	0.016479	-0.081482	0.054169	-0.039215	0.10193	-0.12238	0.29358	0.091553	0.032501	0.005646	-0.030212	-0.075989	0.012817	0.001831	0.15381	-0.00351	-0.17883	-0.087433	-0.003967	-0.002289
46.777	0.007477	-0.11307	0.15305	0.016022	0.007477	0.13336	0.00351	-0.012207	-0.18662	-0.028839	-0.015259	-0.023804	0.24002	-0.18249	0.06424	-0.04837	0.10651	-0.077057	0.28336	0.024719	0.028381	-0.028076	-0.042419	-0.026245	0.007477	0.001373	0.11963	0	-0.16052	-0.085449	-0.001526	0.001678
46.778	0.006409	-0.13809	0.091095	0.004425	0.005341	0.14374	-0.095215	-0.010376	-0.13031	0.001373	-0.006256	-0.023956	0.3035	-0.27741	-0.042419	-0.028839	0.09491	-0.06012	0.1062	0.001221	0.014343	-0.034027	-0.019226	0.013123	0.005493	0.005188	0.1828	0.000763	0.01358	-0.052032	-0.003815	-0.001068
46.779	0.012512	-0.15671	0.081787	0.018616	0.009308	0.1149	-0.086212	-0.012054	-0.024414	0.041504	0.00824	-0.016632	-0.28503	-0.31067	-0.054626	-0.025177	0.019684	-0.055542	0.14221	-0.006714	-0.011902	-0.072327	-0.003052	0.006714	0.006256	0.00351	0.2652	0.004425	0.097198	-0.085754	-0.000458	-0.010681
46.78	0.004272	-0.17334	-0.10071	0.008087	0.011749	0.08194	-0.057983	-0.001068	-0.015106	0.026245	0.019073	-0.01236	-0.25681	-0.13001	-0.003662	-0.022278	-0.047302	-0.05661	0.56427	-0.057983	-0.036316	-0.065765	-0.011902	-0.050659	-0.001068	0.003815	0.39322	-0.004272	0.04303	-0.059814	-0.004425	-0.010376
46.781	0.003204	-0.16159	-0.2095	-0.00946	0.007324	-0.10956	-0.029907	0.001831	-0.001678	0.015259	0.011292	-0.015717	-0.059052	-0.12375	0.060883	-0.053864	-0.051117	-0.084839	0.49149	-0.11383	-0.049133	-0.084381	-0.008392	-0.083923	-0.015564	-0.007172	0.075989	0.001526	0.018463	-0.042267	-0.002136	-0.009766
46.782	-0.004578	-0.17548	-0.32196	0.005493	0.00473	-0.10605	0.016022	0.001984	0.020752	0.011292	0.014038	-0.01236	-0.14526	-0.05127	0.022583	-0.028992	-0.055389	-0.029144	0.16144	-0.07782	-0.03952	-0.059967	-0.006714	-0.085449	-0.000763	-0.003662	-0.1471	-0.000458	-0.01709	-0.045319	-0.003662	-0.008698
46.783	-0.008545	-0.15793	-0.33127	0.015717	-0.001831	-0.10498	-0.016632	0	0.016479	0.017395	-0.007629	-0.012512	0.018616	0.03891	-0.001068	-0.018616	-0.084686	-0.10849	0.005341	-0.07309	-0.045471	-0.058136	0.020599	-0.067596	0.000763	0.000153	-0.24246	0.000305	0.006256	-0.056763	-0.009003	-0.010223
